# xmcd
#
# Track frame offsets:
#	175
#	15707
#	28590
#	46502
#	64987
#	83552
#	96222
#	116552
#	129830
#	146720
#	162755
#	176472
#	195890
#
# Disc length: 2845 seconds
#
# Revision: 0
# Processed by: cddbd v1.5.2PL0 Copyright (c) Steve Scherf et al.
# Submitted via: dBpowerAMP V4.0
#
DISCID=990b1b0d
DTITLE=Erwtjes Ouwe Leem Band - Boogie and Bluesin
DYEAR=1989
DGENRE=Blues
TTITLE0=I got my mojo working
TTITLE1=Just a dream
TTITLE2=Bring it on home to me
TTITLE3=I,m the blues
TTITLE4=I'm your hoochie coochie man
TTITLE5=I feel so good
TTITLE6=You are so beautifull
TTITLE7=Sailing
TTITLE8=Boogie and Bluesin
TTITLE9=Baby please don't leave me
TTITLE10=Sweet home Chicago
TTITLE11=Tell me mama
TTITLE12=Endless love
EXTD=
EXTT0=
EXTT1=
EXTT2=
EXTT3=
EXTT4=
EXTT5=
EXTT6=
EXTT7=
EXTT8=
EXTT9=
EXTT10=
EXTT11=
EXTT12=
PLAYORDER=
